# xmcd
#
# Track frame offsets:
#	150
#	16648
#	34947
#	50337
#	66009
#	81539
#	95826
#	110289
#	131744
#	153699
#	179521
#	194148
#	245666
#
# Disc length: 3877 seconds
#
# Revision: 1
# Processed by: cddbd v1.5.1PL2 Copyright (c) Steve Scherf et al.
# Submitted via: audiograbber 1.81.02
#
DISCID=bc0f230d
DTITLE=House Of Heroes - Say No More (www.gerth.de)
DYEAR=1900
DGENRE=Pop
TTITLE0=Buckets For Bullet Wounds
TTITLE1=Fast Enough
TTITLE2=Friday Night
TTITLE3=The Invisible Hook
TTITLE4=Mercedes Baby
TTITLE5=Serial Sleepers
TTITLE6=Make A Face Like You Mean It (Vampires)
TTITLE7=Metaphor in Parentheses
TTITLE8=You Are The Judas Of The Cheerleading Squad
TTITLE9=Pulling Back The Skin
TTITLE10=Suicide Baby
TTITLE11=Angels In Top Hats
TTITLE12=Daten-CD
EXTD=
EXTT0=
EXTT1=
EXTT2=
EXTT3=
EXTT4=
EXTT5=
EXTT6=
EXTT7=
EXTT8=
EXTT9=
EXTT10=
EXTT11=
EXTT12=
PLAYORDER=
